# AST/ASF file generated using VICON BodyLanguage
# -----------------------------------------------
:version 1.10
:name VICON
:units
  mass 1.0
  length 0.45
  angle deg
:documentation
   .ast/.asf automatically generated from VICON data using
   VICON BodyBuilder and BodyLanguage model FoxedUp or BRILLIANT.MOD
:root
   order TX TY TZ RX RY RZ
   axis XYZ
   position 0 0 0  
   orientation 0 0 0 
:bonedata
  begin
     id 1 
     name lhipjoint
     direction 0.671379 -0.66392 0.329334 
     length 2.38647 
     axis 0 0 0  XYZ
  end
  begin
     id 2 
     name lfemur
     direction 0.34202 -0.939693 0  
     length 6.48179  
     axis 0 0 20  XYZ
    dof rx ry rz
    limits (-160.0 20.0)
           (-70.0 70.0)
           (-60.0 70.0)
  end
  begin
     id 3 
     name ltibia
     direction 0.34202 -0.939693 0   
     length 6.86524   
     axis 0 0 20   XYZ
    dof rx
    limits (-10.0 170.0)
  end
  begin
     id 4 
     name lfoot
     direction 0.204886 -0.562919 0.800715   
     length 1.73031   
     axis -90 7.62852e-016 20   XYZ
    dof rx rz
    limits (-45.0 90.0)
           (-70.0 20.0)
  end
  begin
     id 5 
     name ltoes
     direction 1.53548e-011 -4.21841e-011 1   
     length 0.828161   
     axis -90 7.62852e-016 20   XYZ
    dof rx
    limits (-90.0 20.0)
  end
  begin
     id 6 
     name rhipjoint
     direction -0.662732 -0.670855 0.332775   
     length 2.3618  
     axis 0 0 0  XYZ 
  end
  begin
     id 7 
     name rfemur
     direction -0.34202 -0.939693 0   
     length 6.3025   
     axis 0 0 -20   XYZ
    dof rx ry rz
    limits (-160.0 20.0)
           (-70.0 70.0)
           (-70.0 60.0)
  end
  begin
     id 8 
     name rtibia
     direction -0.34202 -0.939693 0   
     length 6.8732   
     axis 0 0 -20   XYZ
    dof rx
    limits (-10.0 170.0)
 end
 begin
     id 9 
     name rfoot
     direction -0.173856 -0.477665 0.861168   
     length 1.54784  
     axis -90 -7.62852e-016 -20   XYZ
    dof rx rz
    limits (-45.0 90.0)
           (-20.0 70.0)
  end
  begin
     id 10 
     name rtoes
     direction -1.53562e-011 -4.21802e-011 1   
     length 0.759618   
     axis -90 -7.62852e-016 -20   XYZ
    dof rx
    limits (-90.0 20.0)
  end
  begin
     id 11 
     name lowerback
     direction -0.0278357 0.999497 -0.0151789   
     length 1.97203   
     axis 0 0 0   XYZ
    dof rx ry rz
    limits (-20.0 45.0)
           (-30.0 30.0)
           (-30.0 30.0)
  end
  begin
     id 12 
     name upperback
     direction -0.00360622 0.997542 0.0699804   
     length 1.94709   
     axis 0 0 0   XYZ
    dof rx ry rz
    limits (-20.0 45.0)
           (-30.0 30.0)
           (-30.0 30.0)
  end
  begin
     id 13 
     name thorax
     direction 0.00907706 0.997048 0.0762461   
     length 1.95722   
     axis 0 0 0   XYZ
    dof rx ry rz
    limits (-20.0 45.0)
           (-30.0 30.0)
           (-30.0 30.0)
  end
  begin
     id 14 
     name lowerneck
     direction -0.0481835 0.99872 -0.0153927   
     length 1.63078   
     axis 0 0 0   XYZ
    dof rx ry rz
    limits (-20.0 45.0)
           (-30.0 30.0)
           (-30.0 30.0)
  end
  begin
     id 15 
     name upperneck
     direction 0.0859716 0.979226 -0.183644   
     length 1.62591   
     axis 0 0 0   XYZ
    dof rx ry rz
    limits (-20.0 45.0)
           (-30.0 30.0)
           (-30.0 30.0)
  end
  begin
     id 16
     name head
     direction 0.0324821 0.997629 -0.0606773  
     length 1.64811  
     axis 0 0 0   XYZ
    dof rx ry rz
    limits (-20.0 45.0)
           (-30.0 30.0)
           (-30.0 30.0)
  end
  begin
     id 17 
     name lclavicle
     direction 0.939609 0.311019 0.142835  
     length 3.70647  
     axis 0 0 0   XYZ
    dof ry rz
    limits (-20.0 10.0)
           (0.0 20.0)
  end
  begin
     id 18 
     name lhumerus
     direction 1 -4.48963e-011 -1.59838e-027   
     length 4.59207   
     axis 180 -30 -90   XYZ
    dof rx ry rz
    limits (-60.0 90.0)
           (-90.0 90.0)
           (-90.0 90.0)
  end
  begin
     id 19
     name lradius
     direction 1 -4.48957e-011 -1.3483e-026   
     length 2.98109   
     axis 180 -30 -90   XYZ
    dof rx
    limits (-10.0 170.0)
  end
  begin
     id 20
     name lwrist
     direction 1 -4.48954e-011 -3.11579e-026   
     length 1.49055   
     axis 2.00652e-014 90 90   XYZ
    dof ry
    limits (-180.0 0.0)
 end
  begin
     id 21 
     name lhand
     direction 1 -4.4911e-011 -6.23158e-026   
     length 0.480203   
     axis 3.97628e-014 90 90   XYZ
    dof rx rz
    limits (-90.0 90.0)
           (-45.0 45.0)
  end
  begin
     id 22 
     name lfingers
     direction 1 -4.48893e-011 -1.24632e-025   
     length 0.387152   
     axis 7.95256e-014 90 90   XYZ
    dof rx
    limits (0.0 90.0)
  end
  begin
     id 23
     name lthumb
     direction 0.707107 -6.35013e-011 0.707107   
     length 0.555875   
     axis -90 45 2.85299e-015   XYZ
    dof rx rz
    limits (-45.0 45.0)
           (-45.0 45.0)
  end
  begin
     id 24 
     name rclavicle
     direction -0.950396 0.30392 0.0661859   
     length 3.70894  
     axis 0 0 0   XYZ 
    dof ry rz
    limits (-10.0 20.0)
           (-20.0 0.0)
  end
  begin
     id 25 
     name rhumerus
     direction -1 -4.48957e-011 -2.96677e-027  
     length 4.76508   
     axis 180 30 90   XYZ
    dof rx ry rz
    limits (-90.0 60.0)
           (-90.0 90.0)
           (-90.0 90.0)
  end
  begin
     id 26 
     name rradius
     direction -1 -4.48974e-011 -1.44501e-026   
     length 2.78902   
     axis 180 30 90   XYZ
    dof rx
    limits (-10.0 170.0)
  end
  begin
     id 27 
     name rwrist
     direction -1 -4.48978e-011 -3.11579e-026   
     length 1.39451   
     axis 2.00652e-014 -90 -90   XYZ
    dof ry
    limits (-180.0 0.0)
  end
  begin
     id 28
     name rhand
     direction -1 -4.48956e-011 -6.23158e-026   
     length 0.721303   
     axis 3.97628e-014 -90 -90   XYZ
    dof rx rz
    limits (-90.0 90.0)
           (-45.0 45.0)
  end
  begin
     id 29
     name rfingers
     direction -1 -4.4899e-011 -1.24632e-025   
     length 0.581533   
     axis 7.95256e-014 -90 -90   XYZ
    dof rx
    limits (0.0 90.0)
  end
  begin
     id 30
     name rthumb
     direction -0.707107 -6.34911e-011 0.707107   
     length 0.834968   
     axis -90 -45 -2.85299e-015   XYZ
    dof rx rz
    limits (-45.0 45.0)
           (-45.0 45.0)
  end
:hierarchy
  begin
    root lhipjoint rhipjoint lowerback
    lhipjoint lfemur
    lfemur ltibia
    ltibia lfoot
    lfoot ltoes
    rhipjoint rfemur
    rfemur rtibia
    rtibia rfoot
    rfoot rtoes
    lowerback upperback
    upperback thorax
    thorax lowerneck lclavicle rclavicle
    lowerneck upperneck
    upperneck head
    lclavicle lhumerus
    lhumerus lradius
    lradius lwrist
    lwrist lhand lthumb
    lhand lfingers
    rclavicle rhumerus
    rhumerus rradius
    rradius rwrist
    rwrist rhand rthumb
    rhand rfingers
  end

#!OML:ASF I:\salsa\salsa 7_09\Patient 1\Session 1\dancerfemale.ASF
:FULLY-SPECIFIED
:DEGREES
1051
root 19.6942 16.121 -2.68344 -265.825 -81.4395 -91.0612
lowerback 3.71679 2.03841 3.46646
upperback -3.24139 2.90407 -0.385399
thorax -5.25467 1.29266 -2.57485
lowerneck 3.82584 -5.2805 -4.55394
upperneck 13.2909 -8.59167 9.06697
head 3.91074 -4.30225 3.28817
rclavicle 9.29318e-015 4.45278e-014
rhumerus -5.44298 1.72378 -95.7939
rradius 80.1156
rwrist -10.4171
rhand 0.244948 29.6531
rfingers 7.12502
rthumb 25.825 1.38628
lclavicle 9.29318e-015 4.45278e-014
lhumerus -37.497 -8.43543 103.87
lradius 115.843
lwrist -22.2557
lhand -5.81582 26.3984
lfingers 7.12502
lthumb 20.0094 55.3882
rfemur -3.26658 -16.9597 29.5221
rtibia 35.4823
rfoot -4.82663 -10.7568
rtoes -16.6475
lfemur -36.1218 17.9278 -23.4976
ltibia 57.0351
lfoot -9.09606 13.0927
ltoes -5.11582
1052
root 19.876 16.1087 -2.73849 -249.023 -79.6221 -106.662
lowerback 3.54456 2.56793 4.03281
upperback -3.58292 3.65814 -0.0127946
thorax -5.45595 1.639 -2.56089
lowerneck 3.26452 -4.75851 -3.60587
upperneck 13.1339 -7.75456 8.39801
head 3.83805 -3.85146 2.94305
rclavicle -1.11816e-016 -2.8625e-014
rhumerus -4.09084 2.2669 -96.5534
rradius 79.8131
rwrist -10.4029
rhand 0.400837 29.9782
rfingers 7.12502
rthumb 25.9742 1.73313
lclavicle -1.11816e-016 -2.8625e-014
lhumerus -38.4694 -8.35311 103.17
lradius 116.256
lwrist -21.5322
lhand -5.81277 26.5249
lfingers 7.12502
lthumb 20.0123 55.5144
rfemur -3.53937 -16.2377 31.0277
rtibia 32.7527
rfoot -5.83877 -8.22638
rtoes -18.517
lfemur -41.302 19.1438 -22.3885
ltibia 60.7479
lfoot -6.44327 15.2791
ltoes 0.597608
1053
root 20.0401 16.0626 -2.78501 -235.048 -77.8788 -119.454
lowerback 3.32442 3.15077 3.8269
upperback -3.9794 4.42571 0.163885
thorax -5.722 2.01569 -2.31922
lowerneck 2.89436 -4.12903 -3.21687
upperneck 12.9331 -6.8398 8.19092
head 3.76084 -3.37948 2.83904
rclavicle -1.42007e-014 -3.49861e-014
rhumerus -2.90411 2.97483 -97.0634
rradius 79.693
rwrist -10.5132
rhand 0.54052 30.0413
rfingers 7.12502
rthumb 26.108 1.81593
lclavicle -1.42007e-014 -3.49861e-014
lhumerus -39.5276 -7.96027 102.231
lradius 116.86
lwrist -20.8464
lhand -6.2689 26.6769
lfingers 7.12502
lthumb 19.5738 55.7115
rfemur -4.09693 -15.3767 31.4489
rtibia 30.9675
rfoot -6.42416 -4.79801
rtoes -21.0113
lfemur -45.9868 20.1256 -22.1315
ltibia 63.6194
lfoot -4.90849 18.2224
ltoes 4.69539
1054
root 20.1819 16.0172 -2.83591 -224.576 -75.8569 -129.361
lowerback 3.52776 3.68982 3.27957
upperback -4.18765 5.13424 0.349546
thorax -6.07609 2.38165 -1.90057
lowerneck 2.4097 -3.39808 -3.21391
upperneck 12.8898 -5.83924 8.2928
head 3.76835 -2.86679 2.89225
rclavicle -5.15132e-014 -2.54444e-014
rhumerus -1.63436 3.86578 -97.4722
rradius 79.5422
rwrist -10.8551
rhand 0.86128 29.684
rfingers 7.12502
rthumb 26.4151 1.50439
lclavicle -5.15132e-014 -2.54444e-014
lhumerus -40.5572 -7.22325 101.047
lradius 117.519
lwrist -20.2946
lhand -6.58524 26.9392
lfingers 7.12502
lthumb 19.2697 56.0045
rfemur -4.24485 -14.5835 31.3857
rtibia 29.8113
rfoot -6.95683 -1.43318
rtoes -21.7761
lfemur -49.1808 21.2138 -21.8612
ltibia 65.1947
lfoot -6.02065 21.8526
ltoes 8.62712
1055
root 20.2986 15.9758 -2.88703 -217.693 -73.6059 -136.4
lowerback 4.31023 4.14724 2.65509
upperback -4.19755 5.7551 0.646235
thorax -6.59529 2.71216 -1.36604
lowerneck 1.09209 -2.47298 -4.12796
upperneck 13.8343 -4.74424 9.24854
head 4.24056 -2.28359 3.35467
rclavicle 8.76174e-014 6.36111e-015
rhumerus -0.495256 4.86135 -97.7885
rradius 79.3451
rwrist -11.2469
rhand 1.26235 29.5034
rfingers 7.12502
rthumb 26.7989 1.38203
lclavicle 8.76174e-014 6.36111e-015
lhumerus -41.781 -6.03476 99.7587
lradius 118.071
lwrist -20.2104
lhand -7.15589 27.3055
lfingers 7.12502
lthumb 18.7209 56.4246
rfemur -3.66714 -14.6628 31.1123
rtibia 28.7408
rfoot -7.29437 2.39168
rtoes -21.1708
lfemur -50.5676 22.6155 -21.0428
ltibia 65.0328
lfoot -7.60475 24.9534
ltoes 11.8988
1056
root 20.3875 15.9309 -2.92038 -213.386 -71.3382 -141.041
lowerback 5.14611 4.52333 2.30535
upperback -4.18101 6.28353 0.960777
thorax -7.11461 2.98547 -0.973131
lowerneck 1.2239 -2.05739 -2.74668
upperneck 13.5428 -3.95803 7.48969
head 4.02704 -1.90796 2.61042
rclavicle -5.82035e-014 -1.11319e-014
rhumerus 0.14199 5.83001 -97.9142
rradius 79.4545
rwrist -11.5957
rhand 1.43521 29.7075
rfingers 7.12502
rthumb 26.9643 1.61162
lclavicle -5.82035e-014 -1.11319e-014
lhumerus -43.2825 -4.62633 98.3219
lradius 118.578
lwrist -20.5343
lhand -8.24496 27.5511
lfingers 7.12502
lthumb 17.6731 56.768
rfemur -2.72627 -15.876 30.7477
rtibia 27.4233
rfoot -7.18774 7.04566
rtoes -19.3999
lfemur -50.9252 23.5776 -19.6734
ltibia 63.9011
lfoot -10.0638 25.7256
ltoes 12.049
1057
root 20.4455 15.9061 -2.9358 -211.912 -69.0243 -142.535
lowerback 5.44946 4.77445 2.95405
upperback -4.11752 6.70315 1.29724
thorax -7.1807 3.16412 -1.04685
lowerneck 0.0407667 -1.27765 -3.29765
upperneck 14.6397 -3.04986 8.18649
head 4.52162 -1.41964 2.94352
rclavicle 1.25852e-013 5.24792e-014
rhumerus 0.640727 6.66067 -98.0412
rradius 79.7614
rwrist -11.8302
rhand 1.51265 29.9012
rfingers 7.12502
rthumb 27.0384 1.8168
lclavicle 1.25852e-013 5.24792e-014
lhumerus -44.5315 -3.22734 96.5334
lradius 118.992
lwrist -20.8341
lhand -8.38477 27.4937
lfingers 7.12502
lthumb 17.5386 56.7226
rfemur -1.66115 -17.8512 30.9811
rtibia 25.658
rfoot -6.43416 11.3302
rtoes -15.9188
lfemur -50.7734 24.1396 -17.448
ltibia 61.755
lfoot -11.1033 25.4394
ltoes 10.2339
1058
root 20.4732 15.8679 -2.94227 -212.476 -66.769 -141.37
lowerback 4.98121 4.89794 4.62067
upperback -4.11565 6.98869 1.70459
thorax -6.76065 3.23721 -1.51109
lowerneck 0.111861 -0.800886 -2.5993
upperneck 14.4954 -2.32008 7.46688
head 4.41118 -1.06246 2.63169
rclavicle -6.4605e-015 3.18055e-014
rhumerus 1.07065 7.43608 -98.1489
rradius 79.9845
rwrist -12.2553
rhand 1.75931 29.7764
rfingers 7.12502
rthumb 27.2744 1.72881
lclavicle -6.4605e-015 3.18055e-014
lhumerus -45.6018 -1.83532 94.5507
lradius 119.137
lwrist -21.2504
lhand -7.75357 27.3677
lfingers 7.12502
lthumb 18.1459 56.5413
rfemur -0.837696 -20.6403 32.0508
rtibia 23.6285
rfoot -5.26395 15.2422
rtoes -11.8622
lfemur -50.8026 23.893 -14.3247
ltibia 59.0677
lfoot -10.9471 24.9744
ltoes 7.85073
1059
root 20.4729 15.8428 -2.94749 -212.82 -65.0951 -140.12
lowerback 4.23869 4.60597 6.00998
upperback -4.2329 6.65523 2.28277
thorax -6.39812 3.01796 -1.57057
lowerneck 0.822945 -0.153103 -1.93686
upperneck 13.6545 -1.21861 5.93959
head 4.43233 -0.599462 2.31074
rclavicle -1.03617e-014 -3.18055e-015
rhumerus 0.949573 9.36358 -98.2858
rradius 80.2214
rwrist -13.006
rhand 1.85636 29.6305
rfingers 7.12502
rthumb 27.3672 1.59757
lclavicle -1.03617e-014 -3.18055e-015
lhumerus -46.9595 0.667609 92.4705
lradius 119.087
lwrist -22.1123
lhand -7.79135 26.9844
lfingers 7.12502
lthumb 18.1096 56.1613
rfemur -0.172674 -20.6315 33.657
rtibia 21.3348
rfoot -5.10299 15.9609
rtoes -9.83588
lfemur -50.6556 22.865 -11.3532
ltibia 55.7491
lfoot -10.764 25.2883
ltoes 7.04129
1060
root 20.452 15.8441 -2.95569 -211.913 -64.3876 -140.485
lowerback 3.41933 4.80535 6.55171
upperback -4.27509 6.86833 1.97083
thorax -5.86058 3.11102 -2.12456
lowerneck 1.04884 -0.0557447 -0.260505
upperneck 13.5552 -1.03969 5.09617
head 4.31243 -0.469236 1.71729
rclavicle 1.79465e-014 -4.6118e-014
rhumerus 0.818472 9.16051 -98.4769
rradius 80.775
rwrist -13.3971
rhand 1.84377 29.7724
rfingers 7.12502
rthumb 27.3552 1.73755
lclavicle 1.79465e-014 -4.6118e-014
lhumerus -48.1275 1.00563 90.2866
lradius 118.831
lwrist -23.0762
lhand -7.88267 26.4777
lfingers 7.12502
lthumb 18.0217 55.6627
rfemur 0.704778 -19.4074 34.295
rtibia 19.055
rfoot -5.22935 15.1389
rtoes -9.03451
lfemur -49.7186 21.1611 -9.35091
ltibia 51.9633
lfoot -11.0798 26.5539
ltoes 8.69267
